<?xml version="1.0" standalone="no"?>
<!DOCTYPE svg PUBLIC "-//W3C//DTD SVG 20010904//EN"
 "http://www.w3.org/TR/2001/REC-SVG-20010904/DTD/svg10.dtd">
<svg version="1.0" xmlns="http://www.w3.org/2000/svg"
 width="300.000000pt" height="87.000000pt" viewBox="0 0 300.000000 87.000000"
 preserveAspectRatio="xMidYMid meet">

<g transform="translate(0.000000,87.000000) scale(0.100000,-0.100000)"
fill="#000000" stroke="none">
<path d="M302 841 c-115 -40 -215 -135 -263 -251 -33 -79 -33 -231 0 -310 33
-80 91 -152 161 -199 78 -52 143 -71 240 -71 134 0 230 40 319 135 155 163
155 417 0 580 -60 63 -112 96 -188 119 -74 22 -201 20 -269 -3z m260 -77 c238
-84 310 -389 135 -568 -60 -60 -121 -93 -201 -106 -67 -11 -151 2 -210 32 -61
31 -133 105 -163 167 -24 49 -27 68 -27 146 0 107 20 159 85 230 101 110 245
147 381 99z"/>
<path d="M380 575 l0 -85 -85 0 -85 0 0 -55 0 -55 85 0 85 0 0 -85 0 -85 60 0
60 0 0 85 0 85 85 0 85 0 0 55 0 55 -85 0 -85 0 0 85 0 85 -60 0 -60 0 0 -85z"/>
<path d="M1824 742 c-6 -4 -37 -75 -69 -158 -41 -110 -63 -155 -79 -162 -17
-9 -9 -11 39 -11 54 1 57 2 35 12 l-26 12 17 45 17 45 60 3 60 3 16 -47 c18
-53 19 -50 -14 -63 -20 -8 -11 -10 45 -10 56 0 66 2 48 11 -20 10 -61 109
-113 273 -15 48 -22 57 -36 47z m40 -169 c7 -22 5 -23 -43 -23 -28 0 -51 2
-51 3 0 8 40 118 46 129 7 10 19 -19 48 -109z"/>
<path d="M983 727 l27 -11 0 -141 c0 -137 -1 -142 -22 -153 -19 -9 -10 -11 47
-11 59 1 65 2 43 11 -27 9 -28 12 -28 79 l0 69 95 0 95 0 0 -69 c0 -67 -1 -70
-27 -79 -23 -9 -16 -10 42 -10 54 0 64 2 45 9 l-25 9 3 144 c3 136 4 144 25
154 18 9 8 11 -48 10 -61 0 -66 -2 -42 -11 25 -10 27 -14 27 -74 l0 -63 -95 0
-95 0 0 63 c0 60 2 64 28 74 23 9 16 11 -48 11 -64 0 -71 -2 -47 -11z"/>
<path d="M1360 735 c0 -3 11 -10 25 -15 l25 -10 0 -139 0 -139 -27 -10 c-21
-8 3 -11 105 -11 l132 -1 0 24 c0 13 3 31 6 40 3 9 2 16 -4 16 -6 0 -16 -16
-22 -35 l-12 -35 -74 0 -74 0 0 75 0 75 45 0 c41 0 45 -2 45 -25 0 -14 5 -25
10 -25 6 0 10 8 10 19 0 10 3 33 6 50 7 35 -11 44 -21 10 -6 -17 -14 -20 -48
-17 l-42 3 -3 67 -3 66 70 4 c74 3 81 -1 81 -43 0 -10 5 -19 10 -19 6 0 10 18
10 40 l0 40 -125 0 c-69 0 -125 -2 -125 -5z"/>
<path d="M2025 730 c3 -5 15 -10 26 -10 18 0 19 -8 19 -144 l0 -144 -27 -10
c-21 -8 3 -11 105 -11 l132 -1 0 45 c0 25 -2 45 -5 45 -3 0 -12 -18 -21 -40
l-17 -41 -66 3 -66 3 -3 148 c-2 140 -2 147 17 147 11 0 23 5 26 10 4 6 -18
10 -60 10 -42 0 -64 -4 -60 -10z"/>
<path d="M2310 701 c0 -51 17 -62 25 -17 6 32 10 34 51 38 l44 3 0 -146 c0
-141 -1 -146 -22 -157 -19 -9 -10 -11 47 -10 61 0 66 2 43 11 l-28 11 0 143 0
143 50 0 c49 0 50 -1 50 -29 0 -17 4 -32 9 -35 10 -6 21 26 21 62 0 22 -1 22
-145 22 l-145 0 0 -39z"/>
<path d="M2653 727 l27 -11 0 -142 0 -142 -27 -10 c-23 -9 -15 -10 47 -10 62
0 70 1 48 10 -27 9 -28 12 -28 79 l0 69 90 0 90 0 0 -68 c0 -62 -2 -70 -22
-80 -19 -9 -10 -11 47 -11 59 1 65 2 43 11 l-28 10 0 142 0 142 28 11 c23 9
16 11 -48 11 -64 0 -71 -2 -47 -11 25 -10 27 -14 27 -74 l0 -63 -90 0 -90 0 0
63 c0 60 2 64 28 74 23 9 16 11 -48 11 -64 0 -71 -2 -47 -11z"/>
<path d="M974 225 c0 -55 1 -79 3 -52 l4 47 54 0 54 0 4 -47 c2 -27 3 -3 3 52
0 55 -1 79 -3 53 l-4 -48 -54 0 -54 0 -4 48 c-2 26 -3 2 -3 -53z"/>
<path d="M1176 304 c-22 -21 -30 -57 -23 -105 7 -55 22 -69 72 -69 50 0 65 14
72 69 11 77 -15 121 -72 121 -18 0 -41 -7 -49 -16z m86 -11 c21 -19 26 -121 6
-141 -16 -16 -70 -16 -86 0 -18 18 -15 118 5 140 20 22 51 23 75 1z"/>
<path d="M1351 306 c-7 -8 -11 -27 -9 -43 2 -23 11 -30 48 -43 40 -14 45 -19
45 -45 0 -28 -3 -30 -50 -36 l-50 -6 53 -1 c48 -2 53 0 63 24 15 42 3 62 -49
76 -35 10 -48 19 -50 35 -4 27 29 47 69 41 16 -3 29 -1 29 4 0 14 -87 9 -99
-6z"/>
<path d="M1500 225 c0 -57 4 -95 10 -95 6 0 10 14 10 30 0 27 3 30 33 30 48 0
77 24 77 65 0 43 -29 65 -87 65 l-43 0 0 -95z m85 75 c23 -9 26 -15 23 -47 -3
-37 -4 -38 -45 -41 l-43 -3 0 50 c0 56 10 62 65 41z"/>
<path d="M1670 225 c0 -57 4 -95 10 -95 6 0 10 38 10 95 0 57 -4 95 -10 95 -6
0 -10 -38 -10 -95z"/>
<path d="M1720 310 c0 -5 14 -10 30 -10 l30 0 0 -85 c0 -50 4 -85 10 -85 6 0
10 35 10 85 l0 85 30 0 c17 0 30 5 30 10 0 6 -30 10 -70 10 -40 0 -70 -4 -70
-10z"/>
<path d="M1889 225 c-14 -52 -23 -95 -19 -95 5 0 11 11 14 25 6 22 12 25 51
25 39 0 45 -3 51 -25 3 -14 10 -25 14 -25 5 0 -2 39 -16 88 -13 48 -24 90 -24
95 0 4 -10 7 -23 7 -20 0 -25 -10 -48 -95z m75 18 l15 -53 -41 0 -40 0 7 36
c10 56 25 88 34 78 5 -5 16 -33 25 -61z"/>
<path d="M2052 228 l-2 -98 53 2 52 2 -47 3 -47 4 -4 92 -3 92 -2 -97z"/>
</g>
</svg>
