<?xml version="1.0" standalone="no"?>
<!DOCTYPE svg PUBLIC "-//W3C//DTD SVG 20010904//EN"
 "http://www.w3.org/TR/2001/REC-SVG-20010904/DTD/svg10.dtd">
<svg version="1.0" xmlns="http://www.w3.org/2000/svg"
 width="2000.000000pt" height="1907.000000pt" viewBox="0 0 2000.000000 1907.000000"
 preserveAspectRatio="xMidYMid meet">

<g transform="translate(0.000000,1907.000000) scale(0.100000,-0.100000)"
fill="#000000" stroke="none">
<path d="M9600 19063 c-647 -50 -1223 -187 -1805 -428 -131 -54 -460 -213
-564 -272 -687 -392 -1232 -852 -1704 -1443 -1122 -1404 -1515 -3268 -1056
-5020 489 -1868 1921 -3383 3763 -3979 1146 -371 2397 -371 3535 0 1804 589
3202 2037 3727 3858 318 1107 291 2313 -77 3406 -303 900 -835 1722 -1529
2363 -961 888 -2152 1409 -3454 1512 -117 9 -728 11 -836 3z m905 -303 c1125
-114 2118 -530 2986 -1250 160 -134 525 -499 659 -659 748 -902 1170 -1942
1260 -3110 23 -305 8 -780 -35 -1106 -263 -1981 -1619 -3671 -3501 -4365 -437
-162 -873 -261 -1374 -312 -79 -8 -266 -13 -510 -13 -401 1 -518 8 -825 56
-1014 156 -1975 606 -2745 1287 -1079 952 -1724 2254 -1830 3692 -14 195 -12
607 5 810 97 1177 547 2246 1324 3139 140 162 429 445 590 580 892 745 1934
1167 3111 1261 139 11 745 4 885 -10z"/>
<path d="M9532 16157 l-462 -462 465 -465 465 -465 465 465 465 465 -462 462
c-255 255 -465 463 -468 463 -3 0 -213 -208 -468 -463z"/>
<path d="M7690 15010 l0 -660 660 0 660 0 0 660 0 660 -660 0 -660 0 0 -660z"/>
<path d="M10990 15010 l0 -660 660 0 660 0 0 660 0 660 -660 0 -660 0 0 -660z"/>
<path d="M9057 14989 l-5 -634 469 -470 469 -470 0 640 0 640 -464 464 -463
463 -6 -633z"/>
<path d="M10483 15168 l-453 -453 0 -650 0 -650 459 460 460 460 -7 643 -7
642 -452 -452z"/>
<path d="M8195 13840 l460 -460 655 0 655 0 -460 460 -460 460 -655 0 -655 0
460 -460z"/>
<path d="M10515 13840 l-460 -460 645 0 645 0 460 460 460 460 -645 0 -645 0
-460 -460z"/>
<path d="M7200 13825 l-465 -465 465 -465 465 -465 465 465 465 465 -465 465
-465 465 -465 -465z"/>
<path d="M11870 13825 l-465 -465 465 -465 465 -465 465 465 465 465 -465 465
-465 465 -465 -465z"/>
<path d="M8197 12882 l-459 -459 643 -7 644 -6 465 465 465 465 -650 0 -650 0
-458 -458z"/>
<path d="M10530 12875 l465 -465 633 6 634 7 -459 459 -458 458 -640 0 -640 0
465 -465z"/>
<path d="M9518 12843 l-466 -468 6 -638 7 -637 463 463 462 462 -2 643 -3 642
-467 -467z"/>
<path d="M10030 12660 l0 -655 455 -455 455 -455 0 421 c0 231 3 523 7 648 l6
227 -461 462 -462 462 0 -655z"/>
<path d="M7690 11710 l0 -660 660 0 660 0 0 660 0 660 -660 0 -660 0 0 -660z"/>
<path d="M10990 11710 l0 -660 660 0 660 0 0 660 0 660 -660 0 -660 0 0 -660z"/>
<path d="M9532 11487 l-462 -462 465 -465 465 -465 465 465 465 465 -462 462
c-255 255 -465 463 -468 463 -3 0 -213 -208 -468 -463z"/>
<path d="M60 6010 c0 -91 -8 -84 110 -95 169 -16 252 -68 287 -182 17 -55 18
-132 18 -1283 0 -1145 -1 -1229 -18 -1282 -40 -130 -137 -184 -365 -203 l-82
-7 0 -79 0 -79 695 0 695 0 0 79 0 79 -82 7 c-236 19 -322 71 -364 220 -16 53
-18 127 -22 628 l-3 567 865 0 866 0 0 -532 c0 -300 -5 -563 -10 -602 -29
-197 -110 -257 -382 -281 l-78 -7 0 -79 0 -79 690 0 690 0 0 80 c0 65 -3 80
-15 80 -61 0 -218 25 -262 42 -108 40 -153 107 -173 258 -8 60 -10 433 -8
1245 3 1044 5 1165 20 1214 44 141 103 176 351 206 l47 6 0 80 0 79 -647 -2
-648 -3 -3 -77 -3 -77 33 -5 c18 -2 71 -10 118 -16 112 -15 175 -43 211 -93
62 -86 63 -89 67 -684 l3 -543 -865 0 -866 0 0 473 c0 494 7 619 41 697 41 93
120 142 250 155 35 3 79 8 97 11 l32 5 0 79 0 80 -645 0 -645 0 0 -80z"/>
<path d="M4010 6010 c0 -91 -14 -81 133 -99 87 -10 165 -37 200 -69 32 -29 66
-107 77 -179 7 -46 10 -460 8 -1258 -3 -1111 -4 -1193 -21 -1243 -43 -126
-137 -177 -369 -197 l-78 -7 0 -79 0 -79 1325 0 1325 0 4 23 c3 12 17 186 31
387 14 201 28 380 31 398 l5 32 -81 0 c-56 0 -82 -4 -84 -12 -109 -373 -200
-496 -425 -578 -204 -75 -663 -90 -897 -30 -152 39 -245 117 -286 238 -22 66
-23 78 -26 626 l-3 558 108 -6 c384 -25 563 -92 645 -243 26 -48 58 -176 58
-233 l0 -31 73 3 72 3 0 580 0 580 -71 3 -70 3 -12 -88 c-36 -271 -217 -383
-644 -400 l-158 -6 0 625 c0 601 1 627 19 649 19 24 20 24 273 27 306 4 610
-11 735 -37 245 -51 378 -185 436 -436 l21 -95 74 0 75 0 -7 98 c-3 53 -11
198 -16 322 -6 124 -13 249 -16 278 l-5 52 -1230 0 -1229 0 0 -80z"/>
<path d="M7856 4673 c-311 -780 -582 -1445 -601 -1478 -84 -140 -154 -183
-377 -230 -28 -5 -28 -6 -28 -85 l0 -80 515 0 515 0 0 78 0 78 -96 11 c-125
15 -181 42 -211 103 -54 105 -17 273 159 718 l79 202 573 0 572 0 108 -282
c130 -340 155 -420 162 -518 6 -88 -10 -131 -65 -167 -50 -34 -94 -44 -218
-50 l-113 -6 0 -83 0 -84 695 0 695 0 0 84 0 83 -84 5 c-185 12 -275 91 -409
364 -86 173 -83 167 -637 1543 l-486 1206 -91 3 -91 3 -566 -1418z m783 158
c127 -338 231 -618 231 -623 0 -4 -219 -8 -486 -8 -459 0 -486 1 -480 18 89
236 493 1239 498 1234 3 -4 110 -283 237 -621z"/>
<path d="M10400 6011 c0 -88 3 -91 70 -91 67 0 191 -29 235 -55 51 -29 76 -67
102 -150 17 -57 18 -124 18 -1260 0 -1122 -1 -1204 -18 -1265 -42 -154 -123
-203 -369 -225 l-78 -7 0 -79 0 -79 1378 0 1378 0 27 373 c16 204 31 393 34
420 l6 47 -81 0 -81 0 -21 -72 c-32 -112 -80 -234 -113 -286 -93 -149 -245
-234 -479 -267 -247 -35 -635 -28 -803 15 -181 46 -273 139 -310 315 -21 102
-22 2235 -1 2336 19 90 48 143 97 178 41 30 149 61 212 61 19 0 49 3 66 6 l31
7 0 78 0 79 -650 0 -650 0 0 -79z"/>
<path d="M12900 5680 l0 -410 74 0 74 0 7 78 c27 303 144 465 379 526 155 41
666 39 758 -2 80 -35 73 78 76 -1211 3 -1222 -1 -1364 -39 -1467 -53 -141
-181 -208 -436 -229 l-83 -7 0 -79 0 -79 805 0 805 0 0 80 c0 65 -3 80 -15 80
-62 0 -222 26 -285 46 -131 41 -202 123 -232 264 -10 52 -13 307 -13 1308 l0
1244 28 23 c41 36 86 45 277 54 490 25 719 -52 827 -277 34 -70 73 -224 73
-289 0 -60 4 -63 96 -63 61 0 84 3 84 13 0 6 -9 174 -20 372 -11 198 -20 377
-20 398 l0 37 -1610 0 -1610 0 0 -410z"/>
<path d="M16470 6011 c0 -88 2 -91 71 -91 47 0 185 -27 214 -42 84 -43 121
-127 136 -306 15 -188 6 -2289 -10 -2361 -36 -156 -118 -217 -326 -241 -49 -5
-98 -10 -107 -10 -16 0 -18 -11 -18 -80 l0 -80 690 0 690 0 0 79 0 79 -77 7
c-205 18 -289 54 -335 145 -50 98 -52 133 -53 720 l0 545 863 3 863 2 -3 -582
c-3 -525 -5 -588 -21 -636 -42 -125 -140 -179 -364 -197 l-83 -7 0 -79 0 -79
695 0 695 0 0 79 0 78 -107 11 c-226 23 -296 68 -340 217 -16 55 -18 146 -21
1195 -2 752 1 1169 8 1235 21 203 95 282 281 300 35 3 79 8 97 11 l32 5 0 79
0 80 -645 0 -645 0 0 -80 c0 -91 -14 -81 133 -99 154 -18 227 -68 265 -178 14
-42 17 -122 20 -595 l3 -548 -865 0 -866 0 0 443 c0 614 12 722 92 804 38 39
111 69 193 77 33 4 79 9 103 12 l43 5 -3 77 -3 77 -647 3 -648 2 0 -79z"/>
<path d="M12001 1994 c-27 -22 -31 -32 -31 -74 0 -64 28 -99 87 -107 81 -11
133 33 133 112 0 57 -44 95 -108 95 -40 0 -57 -6 -81 -26z"/>
<path d="M19820 1260 l0 -750 85 0 85 0 0 750 0 750 -85 0 -85 0 0 -750z"/>
<path d="M10 1200 l0 -690 85 0 85 0 0 310 0 310 345 0 345 0 0 -310 0 -310
85 0 85 0 0 690 0 690 -85 0 -85 0 0 -305 0 -305 -345 0 -345 0 0 305 0 305
-85 0 -85 0 0 -690z"/>
<path d="M14370 1705 l0 -145 -85 0 -86 0 3 -57 3 -58 82 -3 82 -3 3 -372 3
-372 29 -58 c65 -134 229 -185 413 -129 40 12 74 26 76 30 3 4 0 33 -6 65 -8
46 -14 57 -26 52 -135 -53 -244 -42 -295 28 -20 27 -21 42 -24 393 l-3 364
166 0 165 0 0 60 0 60 -165 0 -165 0 0 145 0 145 -85 0 -85 0 0 -145z"/>
<path d="M3510 1579 c-213 -23 -360 -165 -406 -389 -20 -99 -15 -286 10 -363
61 -189 201 -311 389 -337 243 -34 447 87 528 313 26 74 38 301 21 384 -60
277 -260 422 -542 392z m207 -168 c124 -63 180 -198 170 -411 -7 -174 -61
-278 -172 -335 -52 -27 -69 -30 -144 -30 -76 0 -92 4 -141 30 -112 61 -165
180 -164 370 0 213 67 337 208 387 67 24 185 19 243 -11z"/>
<path d="M6415 1583 c-176 -13 -316 -97 -346 -207 -14 -51 -6 -143 15 -184 24
-46 90 -106 149 -135 29 -14 117 -46 197 -72 209 -67 225 -74 258 -106 82 -80
23 -205 -115 -245 -115 -33 -281 0 -339 69 -13 16 -30 49 -36 73 l-12 44 -78
0 -78 0 0 -28 c0 -51 31 -121 75 -170 83 -92 199 -134 374 -135 128 0 208 20
291 73 94 62 140 138 140 232 0 68 -26 123 -78 170 -57 51 -79 61 -295 134
-105 36 -206 74 -224 85 -151 94 -55 269 148 269 127 0 206 -36 235 -107 l14
-33 80 0 80 0 0 27 c0 74 -89 176 -185 212 -66 25 -189 40 -270 34z"/>
<path d="M9402 1579 c-78 -10 -154 -52 -211 -115 l-49 -56 -8 74 -9 73 -72 3
-73 3 0 -781 0 -780 85 0 85 0 0 315 c0 173 1 315 3 315 2 0 26 -22 54 -49 69
-67 141 -94 253 -94 135 0 239 48 333 153 147 164 181 456 77 677 -59 126
-203 242 -320 258 -86 11 -95 12 -148 4z m160 -171 c134 -57 216 -247 190
-442 -19 -143 -92 -253 -201 -304 -46 -21 -63 -24 -131 -20 -117 7 -193 59
-244 168 -19 40 -21 63 -21 220 1 141 4 184 18 218 62 158 229 227 389 160z"/>
<path d="M17195 1580 c-125 -11 -209 -43 -270 -104 -50 -50 -62 -75 -80 -173
l-7 -33 95 0 95 0 7 33 c18 85 95 141 211 153 69 7 154 -13 198 -47 54 -42 69
-92 74 -233 4 -117 3 -128 -12 -123 -106 41 -261 60 -376 47 -218 -25 -324
-119 -325 -290 0 -132 68 -237 187 -290 110 -48 266 -47 367 5 45 22 118 93
152 145 16 24 17 22 24 -68 l7 -92 74 0 74 0 0 370 c0 388 -4 440 -45 520 -48
93 -154 163 -264 175 -31 3 -67 7 -81 9 -14 1 -61 -1 -105 -4z m195 -601 c30
-6 72 -15 93 -21 37 -11 37 -11 37 -65 0 -96 -49 -175 -145 -232 -48 -30 -68
-35 -136 -39 -102 -6 -157 9 -202 57 -83 87 -71 219 26 275 74 44 181 52 327
25z"/>
<path d="M11990 1035 l0 -525 85 0 85 0 0 525 0 525 -85 0 -85 0 0 -525z"/>
</g>
</svg>
